<svg xmlns="http://www.w3.org/2000/svg" xml:space="preserve" width="800" height="800" viewBox="0 0 512 512"><path d="M456 168h-8v-44.977c0-15.027-13.623-26.219-28.109-23.648l-163.892 28.504L92.172 98.992C77.56 96.372 64 107.656 64 122.625V168h-8c-8.836 0-16 7.163-16 16v184c0 8.836 7.164 16 16 16h130.745c13.602 0 19.88 6.625 27.882 14.627A32.001 32.001 0 0 0 237.254 408h37.49a32 32 0 0 0 22.627-9.373c8-8 14.268-14.627 27.882-14.627H456c8.836 0 16-7.164 16-16V184c0-8.837-7.164-16-16-16zm-33.367-52.859c4.748-.848 9.367 2.787 9.367 7.883v199.109a7.997 7.997 0 0 1-6.609 7.883L264 358.469V142.727l158.633-27.586zM80 122.625c0-4.952 4.446-8.733 9.391-7.883L248 142.711v215.758L86.609 330.016A7.997 7.997 0 0 1 80 322.133V122.625zm208.125 145.102a7.99 7.99 0 0 1 6.484-9.266l104-18.336c4.336-.82 8.5 2.133 9.266 6.484a7.99 7.99 0 0 1-6.484 9.266l-104 18.336a7.754 7.754 0 0 1-1.398.125c-3.813 0-7.188-2.727-7.868-6.609zm0-40a7.99 7.99 0 0 1 6.484-9.266l104-18.336c4.336-.805 8.5 2.133 9.266 6.484a7.99 7.99 0 0 1-6.484 9.266l-104 18.336a7.754 7.754 0 0 1-1.398.125c-3.813 0-7.188-2.727-7.868-6.609zm0-40a7.99 7.99 0 0 1 6.484-9.266l104-18.336c4.336-.82 8.5 2.133 9.266 6.484a7.99 7.99 0 0 1-6.484 9.266l-104 18.336a7.754 7.754 0 0 1-1.398.125c-3.813 0-7.188-2.727-7.868-6.609zm0 120a7.99 7.99 0 0 1 6.484-9.266l104-18.336c4.336-.805 8.5 2.133 9.266 6.484a7.99 7.99 0 0 1-6.484 9.266l-104 18.336a7.754 7.754 0 0 1-1.398.125c-3.813 0-7.188-2.727-7.868-6.609zm-169.886-89.485c-11.85-14.068-13.889-33.678-3.614-45.243 12.414-13.972 35.529-10.978 49.375 5.462 13.847-11.557 36.961-6.399 49.375 11.951 10.275 15.188 8.235 34.079-3.614 43.968l-32.5 27.125c-7.318 6.108-19.204 4.012-26.522-4.677l-32.5-38.586z"/></svg>